<?xml version="1.0" encoding="UTF-8" standalone="no"?>
<!-- Created with Inkscape (http://www.inkscape.org/) -->

<svg
   xmlns:dc="http://purl.org/dc/elements/1.1/"
   xmlns:cc="http://creativecommons.org/ns#"
   xmlns:rdf="http://www.w3.org/1999/02/22-rdf-syntax-ns#"
   xmlns:svg="http://www.w3.org/2000/svg"
   xmlns="http://www.w3.org/2000/svg"
   version="1.1"
   width="76.220001"
   height="100"
   viewBox="0 0 76.219998 100"
   id="Your_Icon"
   xml:space="preserve"><metadata
   id="metadata11"><rdf:RDF><cc:Work
       rdf:about=""><dc:format>image/svg+xml</dc:format><dc:type
         rdf:resource="http://purl.org/dc/dcmitype/StillImage" /><dc:title></dc:title></cc:Work></rdf:RDF></metadata><defs
   id="defs9" />
<path
   d="M 76.214,29.977 V 26.446 L 46.804,0 V 0.076 H 9.022 C 4.037,0.076 0,4.112 0,9.093 V 90.981 C 0,95.966 4.037,100 9.022,100 h 58.176 c 4.979,0 9.016,-4.034 9.016,-9.019 V 29.98 h 0.003 l -0.003,-0.003 z m -8.017,61.004 c 0,0.544 -0.448,0.999 -0.999,0.999 H 9.022 c -0.559,0 -1.006,-0.455 -1.006,-0.999 V 9.093 c 0,-0.551 0.447,-1.002 1.006,-1.002 h 37.781 v 21.89 h 21.394 v 61 z"
   id="path3"
   style="fill:#ffffff" />
<path
   d="m 41.141,41.084 c 0.059,-3.163 -0.94,-4.789 -1.42,-5.333 -0.871,-1.137 -2.263,-1.815 -3.692,-1.802 -0.61,0 -1.199,0.114 -1.774,0.3 -1.537,0.496 -2.767,1.667 -3.39,3.155 -0.441,1.01 -0.59,2.115 -0.59,3.218 0.018,3.342 1.371,7.052 2.763,10.2 -1.55,6.032 -4.071,13.167 -6.714,19.052 -6.955,3.331 -11.113,6.448 -11.754,10.676 -0.045,0.2 -0.045,0.44 -0.045,0.645 -0.035,1.525 0.706,3.579 2.808,5.115 0.806,0.613 1.802,0.947 2.821,0.947 2.598,-0.052 4.582,-1.854 6.625,-4.695 1.419,-1.998 2.88,-4.592 4.406,-7.765 4.605,-1.968 10.189,-3.766 15.068,-4.848 2.914,2.643 5.67,4.176 8.495,4.203 2.215,0.021 4.271,-1.096 5.557,-2.952 0.827,-1.179 1.361,-2.412 1.361,-3.728 0.007,-0.706 -0.159,-1.427 -0.489,-2.067 -1.24,-2.314 -3.831,-3.024 -6.973,-3.018 -1.675,0 -3.601,0.183 -5.795,0.544 -3.038,-3.383 -6.211,-8.127 -8.54,-12.795 0.941,-4.095 1.272,-6.961 1.272,-9.052 z m -6.398,25.41 c 0.957,-2.48 1.863,-5.029 2.666,-7.545 1.23,1.957 2.539,3.831 3.883,5.547 -2.178,0.582 -4.386,1.254 -6.549,1.998 z"
   id="path5"
   style="fill:#ffffff" />
</svg>